<svg width="56" height="56" viewBox="0 0 56 56" fill="none" xmlns="http://www.w3.org/2000/svg">
<g filter="url(#filter0_d_0_94)">
<path fill-rule="evenodd" clip-rule="evenodd" d="M39.2663 3.4255C37.7962 4.30143 37.2926 6.24142 38.1413 7.75858L43.2638 16.9154C44.1125 18.4326 45.9922 18.9524 47.4623 18.0765C48.9323 17.2006 49.436 15.2606 48.5873 13.7434L43.4648 4.58655C42.616 3.06939 40.7363 2.54957 39.2663 3.4255ZM35.1166 8.34033L19.8846 17.4164C17.9246 18.5843 17.253 21.171 18.3847 23.1938L18.6769 23.7162C18.6649 23.7229 18.653 23.7297 18.6412 23.7368L11.093 28.2344L10.3089 26.8327C9.90441 26.1097 8.99044 25.8515 8.26746 26.256C7.54447 26.6604 7.28625 27.5744 7.6907 28.2974L10.7642 33.7915C11.1687 34.5145 12.0826 34.7727 12.8056 34.3682C13.5286 33.9638 13.7868 33.0498 13.3824 32.3268L12.5582 30.8536L20.1418 26.3348L20.4337 26.8566C21.5653 28.8795 24.0716 29.5726 26.0317 28.4047L28.7722 26.7717L20.7998 42.3157C20.4217 43.0528 20.7128 43.9569 21.4499 44.3349C22.187 44.713 23.0911 44.4219 23.4691 43.6848L32.3795 26.3122L41.2898 43.6848C41.6679 44.4219 42.5719 44.713 43.309 44.3349C44.0462 43.9569 44.3372 43.0528 43.9592 42.3157L34.298 23.4791L41.2874 19.3144C41.0494 19.0281 40.8342 18.7161 40.6462 18.38L35.5237 9.22316C35.3632 8.93628 35.2277 8.64108 35.1166 8.34033Z" fill="white"/>
</g>
<defs>
<filter id="filter0_d_0_94" x="0.499512" y="0" width="55.5" height="55.5005" filterUnits="userSpaceOnUse" color-interpolation-filters="sRGB">
<feFlood flood-opacity="0" result="BackgroundImageFix"/>
<feColorMatrix in="SourceAlpha" type="matrix" values="0 0 0 0 0 0 0 0 0 0 0 0 0 0 0 0 0 0 127 0" result="hardAlpha"/>
<feOffset dy="4"/>
<feGaussianBlur stdDeviation="3.5"/>
<feComposite in2="hardAlpha" operator="out"/>
<feColorMatrix type="matrix" values="0 0 0 0 0.388451 0 0 0 0 0.459239 0 0 0 0 0.484722 0 0 0 0.8 0"/>
<feBlend mode="normal" in2="BackgroundImageFix" result="effect1_dropShadow_0_94"/>
<feBlend mode="normal" in="SourceGraphic" in2="effect1_dropShadow_0_94" result="shape"/>
</filter>
</defs>
</svg>
